<?xml version="1.0" encoding="UTF-8" standalone="no"?>
<!-- Created with Inkscape (http://www.inkscape.org/) -->

<svg width="99mm" height="114.41272mm" viewBox="0 0 99 114.41272" version="1.1" id="svg1" inkscape:version="1.3 (0e150ed, 2023-07-21)" sodipodi:docname="fourier-transforms.svg" inkscape:export-filename="fourier-transforms.png" inkscape:export-xdpi="400.06" inkscape:export-ydpi="400.06" xmlns:inkscape="http://www.inkscape.org/namespaces/inkscape" xmlns:sodipodi="http://sodipodi.sourceforge.net/DTD/sodipodi-0.dtd" xmlns="http://www.w3.org/2000/svg" xmlns:svg="http://www.w3.org/2000/svg">
  <sodipodi:namedview id="namedview1" pagecolor="#ffffff" bordercolor="#666666" borderopacity="1.0" inkscape:showpageshadow="2" inkscape:pageopacity="0.0" inkscape:pagecheckerboard="0" inkscape:deskcolor="#d1d1d1" inkscape:document-units="mm" inkscape:zoom="1.530744" inkscape:cx="-37.890072" inkscape:cy="211.0085" inkscape:window-width="1920" inkscape:window-height="1003" inkscape:window-x="0" inkscape:window-y="0" inkscape:window-maximized="1" inkscape:current-layer="layer1" showgrid="true" showguides="true">
    <sodipodi:guide position="99,5" orientation="0,-374.17323" id="guide63" inkscape:locked="false" />
  </sodipodi:namedview>
  <defs id="defs1">
    <marker style="overflow:visible" id="marker35" refX="0" refY="0" orient="auto-start-reverse" inkscape:stockid="Wide arrow" markerWidth="1" markerHeight="1" viewBox="0 0 1 1" inkscape:isstock="true" inkscape:collect="always" preserveAspectRatio="xMidYMid">
      <path style="fill:none;stroke:context-stroke;stroke-width:1;stroke-linecap:butt" d="M 3,-3 0,0 3,3" transform="rotate(180,0.125,0)" sodipodi:nodetypes="ccc" id="path35" />
    </marker>
    <marker style="overflow:visible" id="marker34" refX="0" refY="0" orient="auto-start-reverse" inkscape:stockid="Wide arrow" markerWidth="1" markerHeight="1" viewBox="0 0 1 1" inkscape:isstock="true" inkscape:collect="always" preserveAspectRatio="xMidYMid">
      <path style="fill:none;stroke:context-stroke;stroke-width:1;stroke-linecap:butt" d="M 3,-3 0,0 3,3" transform="rotate(180,0.125,0)" sodipodi:nodetypes="ccc" id="path34" />
    </marker>
    <marker style="overflow:visible" id="ArrowWide" refX="0" refY="0" orient="auto-start-reverse" inkscape:stockid="Wide arrow" markerWidth="1" markerHeight="1" viewBox="0 0 1 1" inkscape:isstock="true" inkscape:collect="always" preserveAspectRatio="xMidYMid">
      <path style="fill:none;stroke:context-stroke;stroke-width:1;stroke-linecap:butt" d="M 3,-3 0,0 3,3" transform="rotate(180,0.125,0)" sodipodi:nodetypes="ccc" id="path17" />
    </marker>
    <marker style="overflow:visible" id="marker12" refX="0" refY="0" orient="auto" inkscape:stockid="Stop" markerWidth="1" markerHeight="1" viewBox="0 0 1 1" inkscape:isstock="true" inkscape:collect="always" preserveAspectRatio="xMidYMid">
      <path style="fill:none;stroke:context-stroke;stroke-width:1" d="M 0,4 V -4" id="path12" />
    </marker>
    <marker style="overflow:visible" id="marker11" refX="0" refY="0" orient="auto" inkscape:stockid="Stop" markerWidth="1" markerHeight="1" viewBox="0 0 1 1" inkscape:isstock="true" inkscape:collect="always" preserveAspectRatio="xMidYMid">
      <path style="fill:none;stroke:context-stroke;stroke-width:1" d="M 0,4 V -4" id="path11" />
    </marker>
    <marker style="overflow:visible" id="marker9" refX="0" refY="0" orient="auto" inkscape:stockid="Stop" markerWidth="1" markerHeight="1" viewBox="0 0 1 1" inkscape:isstock="true" inkscape:collect="always" preserveAspectRatio="xMidYMid">
      <path style="fill:none;stroke:context-stroke;stroke-width:1" d="M 0,4 V -4" id="path9" />
    </marker>
    <marker style="overflow:visible" id="Stop" refX="0" refY="0" orient="auto" inkscape:stockid="Stop" markerWidth="1" markerHeight="1" viewBox="0 0 1 1" inkscape:isstock="true" inkscape:collect="always" preserveAspectRatio="xMidYMid">
      <path style="fill:none;stroke:context-stroke;stroke-width:1" d="M 0,4 V -4" id="path23" />
    </marker>
  </defs>
  <g inkscape:label="Layer 1" inkscape:groupmode="layer" id="layer1">
    <path id="path1" style="fill:none;stroke:#000000;stroke-width:0.253426;stroke-linecap:square;stroke-dasharray:none;marker-end:url(#marker34)" d="M 6.2605778,19.751833 H 40.63977" sodipodi:nodetypes="cc" />
    <path style="fill:none;stroke:#57b2ff;stroke-width:0.506853;stroke-linecap:square;stroke-dasharray:none;stroke-opacity:1" d="m 7.006972,19.027668 c 1.3883022,-1.295759 2.7766183,-2.250776 4.164934,-1.943092 1.637096,0.362818 3.274212,2.378658 4.911308,3.854185 1.637116,1.475745 3.274234,1.971517 4.911328,0.95203 1.637117,-1.019486 3.274126,-3.256027 4.911417,-4.277915 1.637072,-1.021867 3.274146,-0.522406 4.911219,0.95203 1.637074,1.474217 3.274147,3.488523 4.911438,3.854184 1.174347,0.262307 2.348694,-0.381832 3.52304,-1.371226" id="path3" sodipodi:nodetypes="cscccccc" />
    <text xml:space="preserve" style="font-weight:900;font-stretch:ultra-expanded;font-size:3.14768px;line-height:1.25;font-family:MATROSKA;-inkscape-font-specification:'MATROSKA Heavy Ultra-Expanded';stroke-width:0.134105" x="6.1567039" y="12.704949" id="text3"><tspan sodipodi:role="line" id="tspan3" style="font-style:normal;font-variant:normal;font-weight:normal;font-stretch:normal;font-size:3.14768px;font-family:'Latin Modern Math';-inkscape-font-specification:'Latin Modern Math, Normal';font-variant-ligatures:normal;font-variant-caps:normal;font-variant-numeric:normal;font-variant-east-asian:normal;stroke-width:0.134105" x="6.1567039" y="12.704949">sin(x)</tspan></text>
    <path style="fill:none;stroke:#57b2ff;stroke-width:0.506853;stroke-linecap:butt;stroke-linejoin:miter;stroke-dasharray:none;stroke-opacity:1" d="m 67.03511,19.751833 0.0026,5.687136" id="path6" />
    <path style="fill:none;stroke:#57b2ff;stroke-width:0.506853;stroke-linecap:butt;stroke-linejoin:miter;stroke-dasharray:none;stroke-opacity:1" d="m 80.36712,14.064698 0.0026,5.687134" id="path7" />
    <path style="fill:none;stroke:#000000;stroke-width:0.134105px;stroke-linecap:butt;stroke-linejoin:miter;stroke-opacity:1;marker-start:url(#Stop);marker-end:url(#marker9)" d="M 18.992225,24.043287 H 36.161036" id="path8" />
    <text xml:space="preserve" style="font-weight:900;font-stretch:ultra-expanded;font-size:16.9333px;line-height:1.25;font-family:MATROSKA;-inkscape-font-specification:'MATROSKA Heavy Ultra-Expanded';stroke-width:0.264583" x="50.824501" y="53.140102" id="text9"><tspan sodipodi:role="line" id="tspan9" style="stroke-width:0.264583" x="50.824501" y="53.140102" /></text>
    <text xml:space="preserve" style="font-size:3.57613px;line-height:1.25;font-family:'Latin Modern Math';-inkscape-font-specification:'Latin Modern Math, Normal';stroke-width:0.134105" x="26.287432" y="28.020107" id="text10"><tspan sodipodi:role="line" id="tspan10" style="stroke-width:0.134105" x="26.287432" y="28.020107">T</tspan></text>
    <path style="fill:none;stroke:#000000;stroke-width:0.134105px;stroke-linecap:butt;stroke-linejoin:miter;stroke-opacity:1;marker-start:url(#marker11);marker-end:url(#marker12)" d="m 73.702398,24.050406 h 6.667287" id="path10" />
    <text xml:space="preserve" style="font-size:3.57613px;line-height:1.25;font-family:'Latin Modern Math';-inkscape-font-specification:'Latin Modern Math, Normal';stroke-width:0.134105" x="73.864014" y="28.075541" id="text12"><tspan sodipodi:role="line" id="tspan12" style="stroke-width:0.134105" x="73.864014" y="28.075541">1/T</tspan></text>
    <path style="fill:none;stroke:#57b2ff;stroke-width:0.506853;stroke-linecap:butt;stroke-linejoin:miter;stroke-dasharray:none;stroke-opacity:1" d="M 23.450205,37.191718 V 29.115756" id="path14" />
    <path id="path15" style="fill:none;stroke:#000000;stroke-width:0.253426;stroke-linecap:square;stroke-dasharray:none;marker-end:url(#ArrowWide)" d="M 56.512774,37.191718 H 90.891966" sodipodi:nodetypes="cc" />
    <path id="path16" style="fill:none;stroke:#57b2ff;stroke-width:0.506354;stroke-linecap:square;stroke-dasharray:none;stroke-opacity:1" d="M 56.512774,31.25109 H 90.891966" sodipodi:nodetypes="cc" />
    <path style="fill:none;stroke:#57b2ff;stroke-width:0.506853;stroke-linecap:butt;stroke-linejoin:miter;stroke-dasharray:none;stroke-opacity:1" d="M 9.3555339,54.631602 V 46.555644" id="path19" />
    <path style="fill:none;stroke:#57b2ff;stroke-width:0.506853;stroke-linecap:butt;stroke-linejoin:miter;stroke-dasharray:none;stroke-opacity:1" d="M 18.113284,54.631602 V 46.555644" id="path20" />
    <path style="fill:none;stroke:#57b2ff;stroke-width:0.506853;stroke-linecap:butt;stroke-linejoin:miter;stroke-dasharray:none;stroke-opacity:1" d="M 26.871034,54.631602 V 46.555644" id="path21" />
    <path style="fill:none;stroke:#57b2ff;stroke-width:0.506853;stroke-linecap:butt;stroke-linejoin:miter;stroke-dasharray:none;stroke-opacity:1" d="M 35.628785,54.631602 V 46.555644" id="path22" />
    <path style="fill:none;stroke:#000000;stroke-width:0.134105px;stroke-linecap:butt;stroke-linejoin:miter;stroke-opacity:1;marker-start:url(#Stop);marker-end:url(#marker9)" d="m 26.871034,56.785723 h 8.75775" id="path24" />
    <text xml:space="preserve" style="font-size:3.57613px;line-height:1.25;font-family:'Latin Modern Math';-inkscape-font-specification:'Latin Modern Math, Normal';stroke-width:0.134105" x="29.960711" y="60.802155" id="text24"><tspan sodipodi:role="line" id="tspan24" style="stroke-width:0.134105" x="29.960711" y="60.802155">T</tspan></text>
    <path style="fill:none;stroke:#57b2ff;stroke-width:0.506853;stroke-linecap:butt;stroke-linejoin:miter;stroke-dasharray:none;stroke-opacity:1" d="M 59.424117,54.631602 V 46.555644" id="path26" />
    <path style="fill:none;stroke:#57b2ff;stroke-width:0.506853;stroke-linecap:butt;stroke-linejoin:miter;stroke-dasharray:none;stroke-opacity:1" d="M 68.181869,54.631602 V 46.555644" id="path27" />
    <path style="fill:none;stroke:#57b2ff;stroke-width:0.506853;stroke-linecap:butt;stroke-linejoin:miter;stroke-dasharray:none;stroke-opacity:1" d="M 76.939622,54.631602 V 46.555644" id="path28" />
    <path style="fill:none;stroke:#57b2ff;stroke-width:0.506853;stroke-linecap:butt;stroke-linejoin:miter;stroke-dasharray:none;stroke-opacity:1" d="M 85.697369,54.631602 V 46.555644" id="path29" />
    <path style="fill:none;stroke:#000000;stroke-width:0.134105px;stroke-linecap:butt;stroke-linejoin:miter;stroke-opacity:1;marker-start:url(#Stop);marker-end:url(#marker9)" d="m 81.318493,56.785723 h 4.378876" id="path30" />
    <text xml:space="preserve" style="font-size:3.57613px;line-height:1.25;font-family:'Latin Modern Math';-inkscape-font-specification:'Latin Modern Math, Normal';stroke-width:0.134105" x="80.335907" y="61.621941" id="text30"><tspan sodipodi:role="line" id="tspan30" style="stroke-width:0.134105" x="80.335907" y="61.621941">1/T</tspan></text>
    <path style="fill:none;stroke:#57b2ff;stroke-width:0.506853;stroke-linecap:butt;stroke-linejoin:miter;stroke-dasharray:none;stroke-opacity:1" d="M 63.802993,54.631602 V 46.555644" id="path31" />
    <path style="fill:none;stroke:#57b2ff;stroke-width:0.506853;stroke-linecap:butt;stroke-linejoin:miter;stroke-dasharray:none;stroke-opacity:1" d="M 72.560745,54.631602 V 46.555644" id="path32" />
    <path style="fill:none;stroke:#57b2ff;stroke-width:0.506853;stroke-linecap:butt;stroke-linejoin:miter;stroke-dasharray:none;stroke-opacity:1" d="M 81.318493,54.631602 V 46.555644" id="path33" />
    <path id="path36" style="fill:none;stroke:#000000;stroke-width:0.253426;stroke-linecap:square;stroke-dasharray:none;marker-end:url(#ArrowWide)" d="M 6.2606108,72.071486 H 40.639802" sodipodi:nodetypes="cc" />
    <path style="fill:none;stroke:#57b2ff;stroke-width:0.506853;stroke-linecap:butt;stroke-linejoin:miter;stroke-dasharray:none;stroke-opacity:1" d="M 6.1306137,72.071486 H 17.351108 v -7.511739 h 8.495599 v 7.511739 H 38.10009" id="path37" sodipodi:nodetypes="cccccc" />
    <path style="fill:none;stroke:#000000;stroke-width:0.134105px;stroke-linecap:butt;stroke-linejoin:miter;stroke-opacity:1;marker-start:url(#Stop);marker-end:url(#marker9)" d="m 17.351107,75.016778 h 8.4956" id="path38" />
    <text xml:space="preserve" style="font-size:3.57613px;line-height:1.25;font-family:'Latin Modern Math';-inkscape-font-specification:'Latin Modern Math, Normal';stroke-width:0.134105" x="20.5958" y="78.657692" id="text38"><tspan sodipodi:role="line" id="tspan38" style="stroke-width:0.134105" x="20.5958" y="78.657692">d</tspan></text>
    <path id="path39" style="fill:none;stroke:#000000;stroke-width:0.253426;stroke-linecap:square;stroke-dasharray:none;marker-end:url(#ArrowWide)" d="M 56.512774,72.071486 H 90.891966" sodipodi:nodetypes="cc" />
    <path style="fill:none;stroke:#000000;stroke-width:0.134105px;stroke-linecap:butt;stroke-linejoin:miter;stroke-opacity:1;marker-start:url(#Stop);marker-end:url(#marker9)" d="m 73.640668,75.016774 h 4.247799" id="path41" />
    <text xml:space="preserve" style="font-size:3.57613px;line-height:1.25;font-family:'Latin Modern Math';-inkscape-font-specification:'Latin Modern Math, Normal';stroke-width:0.134105" x="72.875053" y="78.92067" id="text41"><tspan sodipodi:role="line" id="tspan41" style="stroke-width:0.134105" x="72.875053" y="78.92067">1/d</tspan></text>
    <path id="path42" style="fill:none;stroke:#000000;stroke-width:0.253426;stroke-linecap:square;stroke-dasharray:none;marker-end:url(#ArrowWide)" d="M 6.2606108,89.51137 H 40.639802" sodipodi:nodetypes="cc" />
    <path style="fill:none;stroke:#57b2ff;stroke-width:0.506853;stroke-linecap:square;stroke-dasharray:none;stroke-opacity:1" d="m 7.3024216,89.566579 c 0.1157144,-0.0078 0.2314799,-0.01618 0.3472443,-0.02532 0.1157655,-0.0089 0.23153,-0.01929 0.3472455,-0.02989 0.1157644,-0.01116 0.231531,-0.02175 0.3472965,-0.03402 0.1157644,-0.01216 0.2314799,-0.02532 0.3472444,-0.03904 0.1157655,-0.01417 0.231531,-0.02888 0.3472954,-0.04506 0.1157145,-0.01573 0.23148,-0.03246 0.3472455,-0.05075 0.1157644,-0.01829 0.2315299,-0.03703 0.3472444,-0.05721 0.1157655,-0.02075 0.231532,-0.04205 0.3472964,-0.06491 0.115766,-0.02331 0.23148,-0.04718 0.347246,-0.07294 0.115764,-0.02587 0.231529,-0.05275 0.347244,-0.08164 0.115765,-0.02844 0.231531,-0.05833 0.347295,-0.09023 0.115766,-0.03189 0.23148,-0.06536 0.347246,-0.100382 0.115765,-0.03502 0.23153,-0.07193 0.347296,-0.110528 0.115714,-0.03848 0.23148,-0.07907 0.347245,-0.121134 0.115765,-0.0426 0.231531,-0.08666 0.347245,-0.132801 0.115766,-0.04618 0.23153,-0.0938 0.347296,-0.143944 0.115765,-0.05019 0.23148,-0.101829 0.347244,-0.156111 0.115765,-0.05376 0.231531,-0.10997 0.347295,-0.167765 0.115716,-0.05833 0.23148,-0.118102 0.347246,-0.180437 0.115766,-0.06179 0.231531,-0.126209 0.347246,-0.192103 0.115765,-0.06592 0.23153,-0.134318 0.347295,-0.204259 0.115765,-0.06994 0.23148,-0.141411 0.347245,-0.215413 0.115766,-0.0735 0.23153,-0.149017 0.347246,-0.226053 0.115764,-0.07707 0.23153,-0.156111 0.347295,-0.236201 0.115764,-0.08053 0.231479,-0.16219 0.347244,-0.245817 0.115767,-0.08309 0.231531,-0.167778 0.347297,-0.253434 0.115714,-0.08565 0.23148,-0.17283 0.347245,-0.260516 0.115765,-0.08766 0.23153,-0.176388 0.347245,-0.266104 0.115765,-0.08923 0.23153,-0.178919 0.347295,-0.269138 0.115766,-0.09023 0.23148,-0.180949 0.347246,-0.271669 0.115764,-0.09079 0.231531,-0.180949 0.347296,-0.271168 0.115715,-0.09023 0.23148,-0.180436 0.347245,-0.26965 0.115765,-0.08923 0.231531,-0.177391 0.347245,-0.265078 0.115764,-0.08766 0.23153,-0.173856 0.347295,-0.258497 0.115765,-0.08521 0.23148,-0.168782 0.347245,-0.250389 0.115765,-0.08164 0.231531,-0.161175 0.347245,-0.239236 0.115765,-0.07752 0.231531,-0.152554 0.347297,-0.225546 0.115764,-0.07299 0.23148,-0.143439 0.347244,-0.21085 0.115766,-0.06741 0.231531,-0.131782 0.347296,-0.193111 0.115715,-0.06082 0.23148,-0.119111 0.347245,-0.173344 0.115764,-0.05474 0.23153,-0.105424 0.347244,-0.152564 0.115766,-0.04713 0.231531,-0.09022 0.347297,-0.129753 0.115765,-0.03903 0.23148,-0.07451 0.347245,-0.105434 0.115766,-0.03092 0.23153,-0.05779 0.347296,-0.08008 0.115714,-0.0223 0.23148,-0.04004 0.347244,-0.05373 0.115766,-0.01369 0.231531,-0.02281 0.347246,-0.02686 0.115765,-0.0046 0.23153,-0.0046 0.347295,0 0.115767,0.004 0.23148,0.01319 0.347246,0.02686 0.115765,0.01369 0.231531,0.03143 0.347245,0.05373 0.115765,0.0223 0.23153,0.04916 0.347295,0.08008 0.115766,0.03092 0.23148,0.06639 0.347246,0.105434 0.115764,0.03954 0.23153,0.08261 0.347295,0.129753 0.115715,0.04713 0.231479,0.09783 0.347245,0.152564 0.115766,0.05424 0.231531,0.11252 0.347246,0.173344 0.115765,0.06133 0.23153,0.1257 0.347296,0.193111 0.115764,0.06741 0.231479,0.137864 0.347244,0.21085 0.115766,0.07299 0.23153,0.147998 0.347295,0.225546 0.115715,0.07807 0.23148,0.157639 0.347246,0.239236 0.115764,0.08164 0.231531,0.165234 0.347244,0.250389 0.115767,0.08465 0.231532,0.171313 0.347297,0.258497 0.115765,0.08766 0.23148,0.175875 0.347245,0.265078 0.115765,0.08923 0.23153,0.179433 0.347245,0.26965 0.115765,0.09023 0.231531,0.180437 0.347295,0.271168 0.115766,0.09067 0.23148,0.181451 0.347246,0.271669 0.115764,0.09023 0.231531,0.179934 0.347296,0.269138 0.115714,0.08967 0.23148,0.178418 0.347244,0.266104 0.115766,0.08766 0.231531,0.174859 0.347246,0.260516 0.115764,0.08565 0.23153,0.170309 0.347295,0.253434 0.115765,0.08365 0.23148,0.165234 0.347245,0.245817 0.115765,0.08008 0.231531,0.159155 0.347295,0.236201 0.115716,0.07707 0.23148,0.152554 0.347247,0.226053 0.115765,0.07394 0.23153,0.14546 0.347244,0.215413 0.115766,0.06994 0.231531,0.138366 0.347295,0.204259 0.115766,0.06592 0.23148,0.130259 0.347246,0.192103 0.115765,0.06234 0.23153,0.122149 0.347244,0.180437 0.115766,0.05777 0.231531,0.11404 0.347296,0.167765 0.115766,0.05421 0.23148,0.105955 0.347246,0.156111 0.115766,0.05019 0.23153,0.09781 0.347296,0.143944 0.115714,0.04618 0.23148,0.09023 0.347245,0.132801 0.115765,0.04205 0.23153,0.08264 0.347245,0.121134 0.115765,0.03848 0.231529,0.07551 0.347295,0.110528 0.115767,0.03502 0.23148,0.06848 0.347246,0.100382 0.115765,0.03189 0.23153,0.06179 0.347296,0.09023 0.115714,0.02888 0.231479,0.05577 0.347244,0.08164 0.115766,0.02587 0.23153,0.04963 0.347246,0.07294 0.115764,0.02275 0.23153,0.04405 0.347295,0.06491 0.115765,0.0203 0.231479,0.03903 0.347245,0.05721 0.115765,0.01829 0.231531,0.03502 0.347245,0.05075 0.115766,0.01618 0.231531,0.03089 0.347297,0.04506 0.115764,0.01372 0.231479,0.02687 0.347244,0.03904 0.115765,0.01216 0.231531,0.02331 0.347295,0.03402 0.115715,0.01116 0.23148,0.02075 0.347246,0.02989" title="(1.0/(sqrt(2.0*pi)))*pow(e,-0.5*x*x)" id="path43" sodipodi:nodetypes="ccccccsccccssccsccccsscscccscsccsccccssccccsssccssscsccssccccsscscsccccccscccccccsscscccccscc" />
    <path id="path44" style="fill:none;stroke:#000000;stroke-width:0.253426;stroke-linecap:square;stroke-dasharray:none;marker-end:url(#ArrowWide)" d="M 56.451075,89.51137 H 90.830266" sodipodi:nodetypes="cc" />
    <path style="fill:none;stroke:#57b2ff;stroke-width:0.506853;stroke-linecap:square;stroke-dasharray:none;stroke-opacity:1" d="m 57.492885,89.371889 c 0.115715,-0.0078 0.23148,-0.01617 0.347245,-0.02532 0.115766,-0.0089 0.231532,-0.01929 0.347246,-0.0299 0.115766,-0.01116 0.23153,-0.02175 0.347296,-0.03402 0.115765,-0.01215 0.23148,-0.02532 0.347244,-0.03904 0.115766,-0.01417 0.231531,-0.02888 0.347296,-0.04506 0.115715,-0.01573 0.231479,-0.03246 0.347245,-0.05075 0.115767,-0.01829 0.231531,-0.03703 0.347246,-0.05722 0.115765,-0.02075 0.23153,-0.04205 0.347296,-0.06491 0.115764,-0.02331 0.231479,-0.04718 0.347244,-0.07294 0.115766,-0.02587 0.23153,-0.05276 0.347246,-0.08164 0.115764,-0.02844 0.23153,-0.05833 0.347295,-0.09023 0.115765,-0.03189 0.231479,-0.06536 0.347245,-0.100382 0.115765,-0.03502 0.231531,-0.07193 0.347296,-0.110528 0.115715,-0.03848 0.23148,-0.07908 0.347246,-0.121135 0.115764,-0.0426 0.231529,-0.08666 0.347244,-0.1328 0.115765,-0.04618 0.23153,-0.0938 0.347295,-0.143944 0.115766,-0.05019 0.23148,-0.101828 0.347246,-0.156111 0.115764,-0.05376 0.23153,-0.10997 0.347296,-0.167766 0.115714,-0.05833 0.23148,-0.118101 0.347245,-0.180436 0.115765,-0.06179 0.231531,-0.12621 0.347245,-0.192103 0.115765,-0.06591 0.23153,-0.134318 0.347296,-0.20426 0.115764,-0.06993 0.23148,-0.14141 0.347244,-0.215411 0.115765,-0.0735 0.231531,-0.149019 0.347245,-0.226053 0.115765,-0.07707 0.23153,-0.156112 0.347297,-0.236203 0.115764,-0.08053 0.23148,-0.16219 0.347244,-0.245816 0.115766,-0.08309 0.231531,-0.167777 0.347296,-0.253435 0.115715,-0.08565 0.23148,-0.172828 0.347245,-0.260515 0.115766,-0.08766 0.23153,-0.176388 0.347245,-0.266105 0.115765,-0.08923 0.231531,-0.178919 0.347295,-0.269136 0.115767,-0.09023 0.23148,-0.18095 0.347247,-0.27167 0.115765,-0.09079 0.231529,-0.180949 0.347295,-0.271168 0.115714,-0.09023 0.23148,-0.180435 0.347244,-0.26965 0.115766,-0.08923 0.231531,-0.177391 0.347246,-0.265078 0.115765,-0.08766 0.23153,-0.173856 0.347295,-0.258497 0.115766,-0.08521 0.23148,-0.168782 0.347245,-0.250389 0.115766,-0.08164 0.231532,-0.161175 0.347246,-0.239236 0.115766,-0.07752 0.23153,-0.152553 0.347296,-0.225546 0.115765,-0.07299 0.23148,-0.14344 0.347245,-0.21085 0.115764,-0.06741 0.23153,-0.131783 0.347295,-0.193112 0.115715,-0.06082 0.231479,-0.11911 0.347245,-0.173343 0.115765,-0.05474 0.231531,-0.105423 0.347245,-0.152563 0.115766,-0.04713 0.231531,-0.09022 0.347297,-0.129755 0.115764,-0.03902 0.231479,-0.07451 0.347244,-0.105434 0.115766,-0.03091 0.23153,-0.05778 0.347296,-0.08008 0.115714,-0.02231 0.23148,-0.04004 0.347245,-0.05373 0.115764,-0.01369 0.23153,-0.02281 0.347244,-0.02686 0.115766,-0.0046 0.231533,-0.0046 0.347297,0 0.115765,0.004 0.23148,0.01319 0.347245,0.02686 0.115765,0.01369 0.23153,0.03143 0.347245,0.05373 0.115765,0.0223 0.231531,0.04917 0.347295,0.08008 0.115766,0.03092 0.23148,0.06639 0.347246,0.105434 0.115764,0.03954 0.23153,0.08261 0.347296,0.129755 0.115714,0.04713 0.23148,0.09782 0.347245,0.152563 0.115765,0.05424 0.231531,0.112521 0.347245,0.173343 0.115764,0.06133 0.23153,0.125701 0.347295,0.193112 0.115765,0.0674 0.23148,0.137863 0.347245,0.21085 0.115765,0.07299 0.231531,0.147998 0.347295,0.225546 0.115716,0.07807 0.23148,0.157639 0.347247,0.239236 0.115765,0.08164 0.23153,0.165235 0.347244,0.250389 0.115766,0.08465 0.231531,0.171313 0.347296,0.258497 0.115765,0.08766 0.23148,0.175875 0.347245,0.265078 0.115766,0.08923 0.23153,0.179432 0.347244,0.26965 0.115766,0.09023 0.231531,0.180436 0.347296,0.271168 0.115766,0.09067 0.23148,0.181451 0.347246,0.27167 0.115766,0.09023 0.23153,0.179934 0.347296,0.269136 0.115714,0.08967 0.23148,0.178419 0.347245,0.266105 0.115765,0.08766 0.23153,0.174859 0.347245,0.260515 0.115765,0.08565 0.23153,0.17031 0.347295,0.253435 0.115766,0.08364 0.23148,0.165234 0.347246,0.245816 0.115764,0.08008 0.231531,0.159156 0.347296,0.236203 0.115714,0.07707 0.231479,0.152553 0.347244,0.226053 0.115766,0.07394 0.23153,0.145459 0.347246,0.215411 0.115764,0.06994 0.23153,0.138367 0.347295,0.20426 0.115765,0.06592 0.23148,0.130258 0.347245,0.192103 0.115765,0.06235 0.23153,0.122149 0.347245,0.180436 0.115765,0.05777 0.231531,0.114041 0.347297,0.167766 0.115764,0.05421 0.23148,0.105955 0.347244,0.156111 0.115766,0.05019 0.231531,0.09782 0.347295,0.143944 0.115715,0.04618 0.23148,0.09023 0.347246,0.1328 0.115764,0.04205 0.23153,0.08264 0.347244,0.121135 0.115766,0.03848 0.231532,0.07551 0.347297,0.110528 0.115765,0.03502 0.23148,0.06848 0.347245,0.100382 0.115765,0.03189 0.23153,0.06179 0.347296,0.09023 0.115714,0.02888 0.23148,0.05577 0.347244,0.08164 0.115766,0.02587 0.231531,0.04963 0.347246,0.07294 0.115765,0.02275 0.231529,0.04406 0.347295,0.06491 0.115767,0.0203 0.23148,0.03904 0.347245,0.05722 0.115766,0.01829 0.231531,0.03502 0.347246,0.05075 0.115765,0.01618 0.23153,0.03089 0.347295,0.04506 0.115766,0.01372 0.23148,0.02687 0.347245,0.03904 0.115765,0.01216 0.231531,0.02331 0.347295,0.03402 0.115716,0.01116 0.23148,0.02075 0.347246,0.0299" title="(1.0/(sqrt(2.0*pi)))*pow(e,-0.5*x*x)" id="path45" sodipodi:nodetypes="ccccccsccccssccsccccsscscccscsccsccscssccccsssccssscsccssccccsscscsccccccsccccccssscscccccscc" />
    <path style="fill:none;stroke:#57b2ff;stroke-width:0.506853;stroke-linecap:square;stroke-dasharray:none;stroke-opacity:1" d="m 57.902059,72.525123 c 0.115562,0.0062 0.23163,0.001 0.347194,-0.01521 0.115562,-0.01572 0.231631,-0.04308 0.347194,-0.07958 0.115563,-0.037 0.231631,-0.08312 0.347194,-0.136345 0.116069,-0.05323 0.231632,-0.113027 0.347194,-0.175371 0.11607,-0.06234 0.231632,-0.127727 0.347194,-0.191083 0.116071,-0.06335 0.231633,-0.124686 0.347702,-0.179427 0.115563,-0.05524 0.231125,-0.103402 0.347195,-0.14141 0.115562,-0.03801 0.231125,-0.06589 0.347194,-0.08059 0.115562,-0.01521 0.231632,-0.01673 0.347194,-0.005 0.115563,0.01217 0.231631,0.03801 0.347195,0.07603 0.116068,0.03852 0.231631,0.08972 0.347194,0.150536 0.11607,0.06082 0.231631,0.131273 0.347194,0.206796 0.11607,0.07603 0.231633,0.156617 0.347702,0.237207 0.115563,0.08059 0.231125,0.160673 0.347194,0.234166 0.115563,0.074 0.231125,0.141411 0.347194,0.197165 0.115563,0.05626 0.231632,0.100361 0.347194,0.129248 0.115563,0.02838 0.231632,0.04157 0.347195,0.037 0.115562,-0.005 0.231632,-0.02737 0.347194,-0.06741 0.11607,-0.03954 0.231633,-0.09681 0.347195,-0.168276 0.116069,-0.07197 0.231632,-0.158138 0.347701,-0.253933 0.115563,-0.0958 0.231125,-0.200715 0.347195,-0.308166 0.115562,-0.107964 0.231124,-0.217947 0.347194,-0.322866 0.115562,-0.104913 0.231631,-0.20477 0.347193,-0.29144 0.115564,-0.08617 0.231632,-0.160166 0.347195,-0.213892 0.115563,-0.05424 0.231633,-0.08818 0.347194,-0.09884 0.116071,-0.0101 0.231633,0.0036 0.347195,0.04308 0.116069,0.03954 0.231633,0.104413 0.347195,0.193112 0.116069,0.08871 0.231632,0.201219 0.347701,0.331987 0.115562,0.13077 0.231125,0.279784 0.347194,0.438935 0.115563,0.158645 0.231631,0.327428 0.347195,0.495196 0.115562,0.167769 0.231632,0.334523 0.347194,0.4881 0.115562,0.153577 0.231632,0.293468 0.347195,0.409031 0.116069,0.115055 0.231631,0.204768 0.347194,0.258494 0.116069,0.05424 0.231632,0.07249 0.347194,0.04713 0.11607,-0.02534 0.231632,-0.09478 0.347701,-0.210851 0.115563,-0.116576 0.231126,-0.280289 0.347194,-0.490634 0.115563,-0.210344 0.231633,-0.467318 0.347195,-0.765347 0.115562,-0.298031 0.231633,-0.637621 0.347195,-1.007624 0.115561,-0.370004 0.231632,-0.770924 0.347194,-1.188571 0.116069,-0.418154 0.231631,-0.853034 0.347195,-1.288421 0.116068,-0.435893 0.231631,-0.871787 0.347194,-1.291462 0.116069,-0.419674 0.231631,-0.822622 0.347701,-1.192118 0.115562,-0.370002 0.231125,-0.706553 0.347193,-0.995459 0.115564,-0.289413 0.231126,-0.530675 0.347196,-0.714663 0.115562,-0.184494 0.231632,-0.310701 0.347194,-0.373551 0.115563,-0.06336 0.231632,-0.06336 0.347195,0 0.116068,0.06285 0.231632,0.189563 0.347194,0.373551 0.116069,0.183988 0.231632,0.425757 0.347194,0.714663 0.116069,0.288906 0.231631,0.625457 0.347701,0.995459 0.115562,0.369496 0.231125,0.772444 0.347195,1.192118 0.115562,0.419675 0.231124,0.855569 0.347195,1.291462 0.115562,0.435387 0.231631,0.870267 0.347194,1.288421 0.115563,0.417647 0.231631,0.818567 0.347194,1.188571 0.115563,0.370003 0.231632,0.709087 0.347194,1.007624 0.11607,0.298029 0.231632,0.555003 0.347194,0.765347 0.11607,0.210345 0.231632,0.374058 0.347702,0.490634 0.115561,0.116576 0.231125,0.185002 0.347194,0.210851 0.115563,0.02534 0.231125,0.0071 0.347195,-0.04713 0.115562,-0.05373 0.231632,-0.143439 0.347194,-0.258494 0.115563,-0.115056 0.231631,-0.255454 0.347195,-0.409031 0.115562,-0.153577 0.231631,-0.320331 0.347194,-0.4881 0.116069,-0.167768 0.231631,-0.336551 0.347193,-0.495196 0.11607,-0.159151 0.231632,-0.308165 0.347702,-0.438935 0.115564,-0.130768 0.231125,-0.243288 0.347195,-0.331987 0.115563,-0.0887 0.231125,-0.153578 0.347194,-0.193112 0.115562,-0.03954 0.231632,-0.05323 0.347194,-0.04308 0.115563,0.01063 0.231632,0.0446 0.347195,0.09884 0.115562,0.05373 0.231632,0.127726 0.347194,0.213892 0.116069,0.08667 0.231631,0.186522 0.347195,0.29144 0.116069,0.104923 0.231631,0.214906 0.347194,0.322866 0.11607,0.107449 0.231632,0.212371 0.347702,0.308166 0.115562,0.0958 0.231124,0.181961 0.347194,0.253933 0.115562,0.07147 0.231631,0.128741 0.347193,0.168276 0.115564,0.04004 0.231632,0.06235 0.347195,0.06741 0.115563,0.0046 0.231632,-0.0086 0.347194,-0.037 0.116071,-0.02889 0.231632,-0.07299 0.347195,-0.129248 0.116069,-0.05576 0.231633,-0.123165 0.347194,-0.197165 0.11607,-0.07349 0.231633,-0.153577 0.347702,-0.234166 0.115562,-0.08059 0.231124,-0.16118 0.347194,-0.237207 0.115562,-0.07552 0.231125,-0.145974 0.347194,-0.206796 0.115563,-0.06082 0.231631,-0.112015 0.347195,-0.150536 0.115562,-0.03852 0.231631,-0.06386 0.347193,-0.07603 0.116071,-0.01166 0.231633,-0.0101 0.347195,0.005 0.11607,0.0147 0.231633,0.04257 0.347195,0.08059 0.11607,0.03801 0.231632,0.08616 0.347701,0.14141 0.115562,0.05474 0.231126,0.116071 0.347194,0.179427 0.115562,0.06336 0.231126,0.128741 0.347195,0.191083 0.115562,0.06235 0.231632,0.122152 0.347194,0.175371 0.115562,0.05323 0.231633,0.09934 0.347194,0.136345 0.115563,0.03649 0.231632,0.06386 0.347196,0.07958 0.116068,0.01622 0.231631,0.02129 0.347194,0.01521" title="sin(pi*x)/(pi*x)" id="path46" sodipodi:nodetypes="ccccccccccccccccccccccccccccccsscccccssccccccccccccccscccccssccccccccccccccccccccsccccccsccc" />
    <path id="path52" style="fill:none;stroke:#000000;stroke-width:0.253426;stroke-linecap:square;stroke-dasharray:none;marker-end:url(#ArrowWide)" d="M 56.451075,106.95126 H 90.830266" sodipodi:nodetypes="cc" />
    <path style="fill:none;stroke:#57b2ff;stroke-width:0.506853;stroke-linecap:butt;stroke-linejoin:miter;stroke-dasharray:none;stroke-opacity:1" d="m 56.319712,106.95126 h 11.090499 l 0.131362,-7.511739 h 8.495597 v 7.511739 h 12.253388" id="path53" sodipodi:nodetypes="cccccc" />
    <path style="fill:none;stroke:#000000;stroke-width:0.134105px;stroke-linecap:butt;stroke-linejoin:miter;stroke-opacity:1;marker-start:url(#Stop);marker-end:url(#marker9)" d="M 67.541573,109.69357 H 76.03717" id="path54" />
    <text xml:space="preserve" style="font-size:3.57613px;line-height:1.25;font-family:'Latin Modern Math';-inkscape-font-specification:'Latin Modern Math, Normal';stroke-width:0.134105" x="68.899864" y="113.51868" id="text54"><tspan sodipodi:role="line" id="tspan54" style="stroke-width:0.134105" x="68.899864" y="113.51868">1/d</tspan></text>
    <path id="path55" style="fill:none;stroke:#000000;stroke-width:0.253426;stroke-linecap:square;stroke-dasharray:none;marker-end:url(#ArrowWide)" d="M 6.2606108,106.95126 H 40.639802" sodipodi:nodetypes="cc" />
    <path style="fill:none;stroke:#000000;stroke-width:0.134105px;stroke-linecap:butt;stroke-linejoin:miter;stroke-opacity:1;marker-start:url(#Stop);marker-end:url(#marker9)" d="m 23.388504,109.69357 h 4.247799" id="path56" />
    <text xml:space="preserve" style="font-size:3.57613px;line-height:1.25;font-family:'Latin Modern Math';-inkscape-font-specification:'Latin Modern Math, Normal';stroke-width:0.134105" x="24.509296" y="113.31842" id="text56"><tspan sodipodi:role="line" id="tspan56" style="stroke-width:0.134105" x="24.509296" y="113.31842">d</tspan></text>
    <path style="fill:none;stroke:#57b2ff;stroke-width:0.506853;stroke-linecap:square;stroke-dasharray:none;stroke-opacity:1" d="m 7.6498946,107.4049 c 0.1155634,0.005 0.231632,0.001 0.3471944,-0.0152 0.1155624,-0.0157 0.231632,-0.0431 0.3471944,-0.0797 0.1155624,-0.037 0.2316331,-0.0831 0.3471944,-0.13634 0.1160697,-0.0532 0.2316331,-0.11303 0.3471944,-0.17536 0.1160697,-0.0623 0.231632,-0.12773 0.3471955,-0.19109 0.1160686,-0.0634 0.2316309,-0.12468 0.3477006,-0.17942 0.1155624,-0.0552 0.2311247,-0.10337 0.3471947,-0.14141 0.115562,-0.0381 0.231124,-0.0659 0.347193,-0.0806 0.115563,-0.0152 0.231633,-0.0167 0.347194,-0.005 0.115564,0.0121 0.231634,0.0381 0.347196,0.076 0.11607,0.0385 0.231632,0.0897 0.347194,0.15053 0.11607,0.0608 0.231632,0.13128 0.347195,0.20681 0.116068,0.076 0.231632,0.15661 0.3477,0.23721 0.115563,0.0805 0.231125,0.16067 0.347195,0.23416 0.115562,0.0739 0.231124,0.14141 0.347194,0.19717 0.115563,0.0563 0.231632,0.10039 0.347196,0.12924 0.115561,0.0283 0.231631,0.0416 0.347194,0.037 0.115561,-0.005 0.231631,-0.0273 0.347193,-0.0673 0.11607,-0.0396 0.231632,-0.0968 0.347195,-0.16828 0.116069,-0.0719 0.231632,-0.15814 0.3477,-0.25393 0.115564,-0.0958 0.231126,-0.20071 0.347195,-0.30817 0.115562,-0.10796 0.231126,-0.21795 0.347195,-0.32286 0.115562,-0.10497 0.231632,-0.20477 0.347195,-0.29145 0.115562,-0.0861 0.231632,-0.16016 0.347194,-0.21389 0.115562,-0.0542 0.231631,-0.0883 0.347194,-0.0988 0.116069,-0.01 0.231631,0.003 0.347195,0.0431 0.116068,0.0395 0.231631,0.10443 0.347193,0.1931 0.11607,0.0887 0.231632,0.20122 0.347703,0.33199 0.115561,0.13077 0.231124,0.27978 0.347193,0.43893 0.115564,0.15865 0.231632,0.32744 0.347195,0.4952 0.115562,0.16777 0.231632,0.33452 0.347194,0.4881 0.115562,0.15358 0.231632,0.29346 0.347195,0.40903 0.116068,0.11506 0.231632,0.20477 0.347194,0.2585 0.116069,0.0542 0.231631,0.0725 0.347194,0.0472 0.116069,-0.0253 0.231631,-0.0948 0.347702,-0.21085 0.115562,-0.11658 0.231124,-0.28029 0.347194,-0.49063 0.115563,-0.21034 0.231631,-0.46731 0.347195,-0.76535 0.115562,-0.29802 0.231631,-0.63762 0.347193,-1.00762 0.115564,-0.37001 0.231632,-0.77092 0.347195,-1.18858 0.116069,-0.41816 0.231632,-0.85302 0.347194,-1.28841 0.11607,-0.4359 0.231632,-0.87179 0.347194,-1.29147 0.11607,-0.41967 0.231632,-0.82262 0.347702,-1.19211 0.115562,-0.37001 0.231126,-0.70656 0.347194,-0.99546 0.115563,-0.289418 0.231125,-0.53068 0.347195,-0.714663 0.115562,-0.184493 0.231631,-0.310707 0.347194,-0.373548 0.115563,-0.06335 0.231631,-0.06335 0.347195,0 0.116068,0.06296 0.231631,0.189555 0.347193,0.373548 0.116071,0.183983 0.231632,0.425755 0.347194,0.714663 0.116071,0.2889 0.231634,0.62545 0.347702,0.99546 0.115564,0.36949 0.231126,0.77244 0.347195,1.19211 0.115562,0.41968 0.231125,0.85557 0.347194,1.29147 0.115562,0.43539 0.231632,0.87025 0.347194,1.28841 0.115563,0.41766 0.231632,0.81857 0.347195,1.18858 0.115562,0.37 0.231631,0.70907 0.347194,1.00762 0.11607,0.29804 0.231632,0.55501 0.347195,0.76535 0.116069,0.21034 0.231632,0.37405 0.347701,0.49063 0.115563,0.11657 0.231125,0.18499 0.347195,0.21085 0.115562,0.0253 0.231124,0.006 0.347193,-0.0472 0.115563,-0.0538 0.231632,-0.14344 0.347194,-0.2585 0.115564,-0.11505 0.231632,-0.25545 0.347195,-0.40903 0.115562,-0.15358 0.231633,-0.32033 0.347194,-0.4881 0.11607,-0.16776 0.231633,-0.33655 0.347196,-0.4952 0.116068,-0.15915 0.231632,-0.30816 0.3477,-0.43893 0.115563,-0.13077 0.231125,-0.24329 0.347195,-0.33199 0.115562,-0.0887 0.231124,-0.15357 0.347194,-0.1931 0.115562,-0.0395 0.231631,-0.0532 0.347194,-0.0431 0.115563,0.0112 0.231632,0.0446 0.347194,0.0988 0.115563,0.0538 0.231633,0.12774 0.347195,0.21389 0.11607,0.0867 0.231632,0.18653 0.347195,0.29145 0.116069,0.10497 0.231632,0.2149 0.347194,0.32286 0.116069,0.1074 0.231632,0.21237 0.347701,0.30817 0.115562,0.0958 0.231126,0.18196 0.347194,0.25393 0.115562,0.0715 0.231633,0.12874 0.347195,0.16828 0.115562,0.04 0.231633,0.0623 0.347195,0.0673 0.115561,0.004 0.231631,-0.009 0.347194,-0.037 0.116069,-0.0289 0.231631,-0.0731 0.347195,-0.12924 0.116068,-0.0557 0.231631,-0.12318 0.347193,-0.19717 0.11607,-0.0735 0.231632,-0.15358 0.347701,-0.23416 0.115563,-0.0806 0.231126,-0.16119 0.347194,-0.23721 0.115564,-0.0755 0.231126,-0.14598 0.347196,-0.20681 0.115561,-0.0608 0.231632,-0.112 0.347194,-0.15053 0.115562,-0.0385 0.231632,-0.0639 0.347194,-0.076 0.116069,-0.0116 0.231632,-0.01 0.347195,0.005 0.116068,0.0147 0.231631,0.0426 0.347194,0.0806 0.116069,0.0381 0.231631,0.0861 0.347701,0.14141 0.115562,0.0548 0.231125,0.11606 0.347195,0.17942 0.115562,0.0634 0.231124,0.12873 0.347194,0.19109 0.115563,0.0623 0.231632,0.12215 0.347194,0.17536 0.115564,0.0532 0.231632,0.0994 0.347194,0.13634 0.115563,0.0365 0.231632,0.0639 0.347195,0.0797 0.116068,0.0162 0.231632,0.0213 0.347194,0.0152" title="sin(pi*x)/(pi*x)" id="path57" sodipodi:nodetypes="ccccccccccccccccccccccccccccccsscccccssccccccccccccccscccccsscccccccccccccccccccccccccccsccc" />
    <text xml:space="preserve" style="font-style:normal;font-variant:normal;font-weight:bold;font-stretch:normal;font-size:3.52778px;line-height:1.25;font-family:'Latin Modern Roman';-inkscape-font-specification:'Latin Modern Roman, Bold';font-variant-ligatures:normal;font-variant-caps:normal;font-variant-numeric:normal;font-variant-east-asian:normal;stroke-width:0.295094" x="10.056993" y="3.3200154" id="text57"><tspan sodipodi:role="line" style="font-style:normal;font-variant:normal;font-weight:bold;font-stretch:normal;font-size:3.52778px;font-family:'Latin Modern Roman';-inkscape-font-specification:'Latin Modern Roman, Bold';font-variant-ligatures:normal;font-variant-caps:normal;font-variant-numeric:normal;font-variant-east-asian:normal;stroke-width:0.295094" x="10.056993" y="3.3200154" id="tspan60">Spatial domain</tspan></text>
    <text xml:space="preserve" style="font-style:normal;font-variant:normal;font-weight:bold;font-stretch:normal;font-size:3.52778px;line-height:1.25;font-family:'Latin Modern Roman';-inkscape-font-specification:'Latin Modern Roman, Bold';font-variant-ligatures:normal;font-variant-caps:normal;font-variant-numeric:normal;font-variant-east-asian:normal;stroke-width:0.295094" x="57.393482" y="3.2767348" id="text58"><tspan sodipodi:role="line" style="font-style:normal;font-variant:normal;font-weight:bold;font-stretch:normal;font-size:3.52778px;font-family:'Latin Modern Roman';-inkscape-font-specification:'Latin Modern Roman, Bold';font-variant-ligatures:normal;font-variant-caps:normal;font-variant-numeric:normal;font-variant-east-asian:normal;stroke-width:0.295094" x="57.393482" y="3.2767348" id="tspan59">Frequency domain</tspan></text>
    <text xml:space="preserve" style="font-size:3.14768px;line-height:1.25;font-family:'Latin Modern Math';-inkscape-font-specification:'Latin Modern Math, Normal';stroke-width:0.295094" x="56.408901" y="66.618706" id="text64"><tspan sodipodi:role="line" id="tspan64" style="font-size:3.14768px;stroke-width:0.295094" x="56.408901" y="66.618706">sinc</tspan></text>
    <text xml:space="preserve" style="font-size:3.14768px;line-height:1.25;font-family:'Latin Modern Math';-inkscape-font-specification:'Latin Modern Math, Normal';stroke-width:0.295094" x="6.1567378" y="66.618706" id="text65"><tspan sodipodi:role="line" id="tspan65" style="font-size:3.14768px;stroke-width:0.295094" x="6.1567378" y="66.618706">box</tspan></text>
    <path id="path25" style="fill:none;stroke:#000000;stroke-width:0.252073;stroke-linecap:square;stroke-dasharray:none;marker-end:url(#ArrowWide)" d="M 56.512774,54.631602 H 90.708388" sodipodi:nodetypes="cc" />
    <path id="path18" style="fill:none;stroke:#000000;stroke-width:0.253426;stroke-linecap:square;stroke-dasharray:none;marker-end:url(#ArrowWide)" d="M 6.2606108,54.631602 H 40.639802" sodipodi:nodetypes="cc" />
    <path id="path13" style="fill:none;stroke:#000000;stroke-width:0.253426;stroke-linecap:square;stroke-dasharray:none;marker-end:url(#ArrowWide)" d="M 6.2606108,37.191718 H 40.639802" sodipodi:nodetypes="cc" />
    <path id="path5" style="fill:none;stroke:#000000;stroke-width:0.253426;stroke-linecap:square;stroke-dasharray:none;marker-end:url(#marker35)" d="M 56.512774,19.751833 H 90.891966" sodipodi:nodetypes="cc" />
    <path style="fill:none;stroke:#000000;stroke-width:0.253177;stroke-linecap:butt;stroke-linejoin:miter;stroke-dasharray:0.759532, 0.759532;stroke-dashoffset:0;stroke-opacity:1" d="m 73.702398,23.044701 v -9.49305" id="path65" />
  </g>
</svg>
